<?xml version="1.0" encoding="utf-8"?>
<!-- Generator: Adobe Illustrator 22.0.0, SVG Export Plug-In . SVG Version: 6.00 Build 0)  -->
<svg version="1.1" id="Layer_1" xmlns="http://www.w3.org/2000/svg" xmlns:xlink="http://www.w3.org/1999/xlink" x="0px" y="0px"
	 viewBox="0 0 252.2 83.9" style="enable-background:new 0 0 252.2 83.9;" xml:space="preserve">
<style type="text/css">
	.st0{fill:#044B7C;}
	.st1{fill:#8EC742;}
</style>
<title>paypal-seeklogo.com</title>
<g>
	<g>
		<path class="st0" d="M0.6,62.3c1.3-0.2,3.1-0.4,5.4-0.4c2.6,0,4.6,0.6,5.8,1.7c1.2,1,1.9,2.5,1.9,4.4c0,1.9-0.6,3.4-1.7,4.5
			c-1.4,1.5-3.7,2.2-6.3,2.2c-0.7,0-1.4,0-2-0.2v7.9H0.6V62.3z M3.7,72c0.5,0.1,1.2,0.2,2,0.2c3,0,4.8-1.5,4.8-4.1
			c0-2.5-1.7-3.7-4.5-3.7c-1.1,0-1.9,0.1-2.3,0.2V72z"/>
		<path class="st0" d="M17,61h3.2v8.9h0.1c0.5-0.7,1.1-1.3,1.9-1.8c0.7-0.4,1.7-0.7,2.6-0.7c2.2,0,5.1,1.4,5.1,6.3v8.7h-3.2v-8.3
			c0-2.2-0.8-4-3.1-4c-1.6,0-2.8,1.1-3.2,2.4c-0.1,0.3-0.2,0.7-0.2,1.2v8.8H17V61z"/>
		<path class="st0" d="M37.7,63.7c0,1-0.7,1.8-1.9,1.8c-1.1,0-1.8-0.8-1.8-1.8c0-1,0.8-1.8,1.9-1.8C36.9,61.8,37.7,62.6,37.7,63.7z
			 M34.2,82.4V67.8h3.2v14.6H34.2z"/>
		<path class="st0" d="M41.8,61H45v21.4h-3.2V61z"/>
		<path class="st0" d="M63,75c0,5.4-3.8,7.8-7.4,7.8c-4.1,0-7.2-2.9-7.2-7.5c0-4.9,3.2-7.8,7.4-7.8C60.1,67.4,63,70.5,63,75z
			 M51.7,75.1c0,3,1.6,5.3,4,5.3c2.3,0,4-2.2,4-5.4c0-2.4-1.1-5.3-4-5.3C52.9,69.8,51.7,72.5,51.7,75.1z"/>
		<path class="st0" d="M66.4,71.9c0-1.6-0.1-2.9-0.1-4.2H69l0.2,2.3h0.1c0.8-1.3,2.1-2.6,4.6-2.6c2,0,3.5,1.1,4.1,2.8H78
			c0.5-0.8,1.1-1.4,1.7-1.9c0.9-0.6,1.8-0.9,3.1-0.9c2.2,0,4.9,1.5,4.9,6.4v8.6h-3.1v-8.2c0-2.6-0.9-4.2-2.9-4.2
			c-1.4,0-2.4,1-2.9,2.2c-0.1,0.4-0.2,0.8-0.2,1.3v8.9h-3.1v-8.6c0-2.2-0.9-3.8-2.8-3.8c-1.5,0-2.6,1.2-3,2.4
			c-0.1,0.4-0.2,0.8-0.2,1.3v8.7h-3.1V71.9z"/>
		<path class="st0" d="M100.2,82.4l-0.2-1.7h-0.1c-0.8,1.1-2.4,2.1-4.4,2.1c-3,0-4.5-2.1-4.5-4.3c0-3.6,3.2-5.5,8.7-5.5v-0.3
			c0-1.1-0.4-3-3.2-3c-1.4,0-2.9,0.4-3.9,1.1l-0.7-2.1c1.2-0.7,3-1.3,5.1-1.3c4.6,0,5.8,3,5.8,6.1v5.4c0,1.3,0.1,2.6,0.2,3.5H100.2z
			 M99.7,75.1c-2.7,0-5.6,0.5-5.6,3c0,1.6,1,2.3,2.3,2.3c1.7,0,2.8-1.1,3.2-2.2c0.1-0.3,0.1-0.6,0.1-0.8V75.1z"/>
		<path class="st0" d="M110.7,63.6v4.2h3.7v2.4h-3.7v7.2c0,1.8,0.5,2.8,2,2.8c0.7,0,1.2-0.1,1.5-0.2l0.1,2.4
			c-0.5,0.2-1.4,0.4-2.5,0.4c-1.3,0-2.4-0.4-3-1.2c-0.8-0.8-1.1-2.1-1.1-4v-7.4h-2.2v-2.4h2.2v-3.4L110.7,63.6z"/>
		<path class="st0" d="M117.4,61h3.2v8.9h0.1c0.5-0.7,1.1-1.3,1.9-1.8c0.7-0.4,1.7-0.7,2.6-0.7c2.2,0,5.1,1.4,5.1,6.3v8.7h-3.2v-8.3
			c0-2.2-0.8-4-3.1-4c-1.6,0-2.8,1.1-3.2,2.4c-0.1,0.3-0.2,0.7-0.2,1.2v8.8h-3.2V61z"/>
	</g>
	<g>
		<path class="st0" d="M137.1,62.4c1.4-0.3,3.4-0.4,5.3-0.4c2.9,0,4.8,0.5,6.1,1.7c1.1,0.9,1.7,2.3,1.7,4c0,2.6-1.7,4.4-3.8,5.1v0.1
			c1.5,0.6,2.4,2,2.9,4c0.7,2.7,1.2,4.8,1.6,5.6h-3.3c-0.3-0.6-0.8-2.3-1.4-4.8c-0.6-2.7-1.6-3.7-3.9-3.8h-2.2v8.6h-3.2V62.4z
			 M140.3,71.5h2.4c2.7,0,4.3-1.4,4.3-3.6c0-2.4-1.7-3.5-4.3-3.5c-1.2,0-2,0.1-2.5,0.2V71.5z"/>
		<path class="st0" d="M156.4,75.9c0.1,3.1,2.2,4.4,4.8,4.4c1.8,0,3-0.3,4-0.7l0.5,2.2c-1.1,0.5-2.8,0.9-5,0.9c-4.6,0-7.4-3-7.4-7.4
			c0-4.2,2.5-7.9,7-7.9c4.8,0,6.2,4.1,6.2,7c0,0.6,0,1.1-0.1,1.4H156.4z M163.5,73.6c0-1.5-0.6-3.9-3.4-3.9c-2.5,0-3.6,2.3-3.7,3.9
			H163.5z"/>
		<path class="st0" d="M169.9,79.4c0.8,0.5,2.3,1.1,3.6,1.1c1.8,0,2.6-0.8,2.6-1.9c0-1.1-0.7-1.7-2.6-2.4c-2.8-1-4-2.5-4-4.2
			c0-2.5,2-4.4,5.3-4.4c1.6,0,2.9,0.4,3.7,0.9l-0.7,2.3c-0.6-0.4-1.7-0.9-3.1-0.9c-1.4,0-2.2,0.8-2.2,1.8c0,1.1,0.8,1.6,2.7,2.3
			c2.6,0.9,3.9,2.3,3.9,4.4c0,2.6-2,4.5-5.7,4.5c-1.7,0-3.2-0.4-4.3-1L169.9,79.4z"/>
		<path class="st0" d="M185,75.9c0.1,3.1,2.2,4.4,4.8,4.4c1.8,0,3-0.3,4-0.7l0.5,2.2c-1.1,0.5-2.8,0.9-5,0.9c-4.6,0-7.4-3-7.4-7.4
			c0-4.2,2.5-7.9,7-7.9c4.8,0,6.2,4.1,6.2,7c0,0.6,0,1.1-0.1,1.4H185z M192.1,73.6c0-1.5-0.6-3.9-3.4-3.9c-2.5,0-3.6,2.3-3.7,3.9
			H192.1z"/>
		<path class="st0" d="M206.9,82.4l-0.2-1.7h-0.1c-0.8,1.1-2.4,2.1-4.4,2.1c-3,0-4.5-2.1-4.5-4.3c0-3.6,3.2-5.5,8.7-5.5v-0.3
			c0-1.1-0.4-3-3.2-3c-1.4,0-2.9,0.4-3.9,1.1l-0.7-2.1c1.2-0.7,3-1.3,5.1-1.3c4.6,0,5.8,3,5.8,6.1v5.4c0,1.3,0.1,2.6,0.2,3.5H206.9z
			 M206.5,75.1c-2.7,0-5.6,0.5-5.6,3c0,1.6,1,2.3,2.3,2.3c1.7,0,2.8-1.1,3.2-2.2c0.1-0.3,0.1-0.6,0.1-0.8V75.1z"/>
		<path class="st0" d="M214.2,72.4c0-1.8,0-3.3-0.1-4.6h2.8l0.1,2.8h0.1c0.7-2,2.4-3.2,4-3.2c0.3,0,0.5,0,0.8,0.1v3
			c-0.3-0.1-0.6-0.1-1-0.1c-1.8,0-3.1,1.3-3.4,3.1c-0.1,0.4-0.1,0.8-0.1,1.2v7.7h-3.2V72.4z"/>
		<path class="st0" d="M235.3,81.9c-0.7,0.4-2.3,0.8-4.2,0.8c-4.5,0-7.4-3-7.4-7.5c0-4.5,3-7.8,8-7.8c1.5,0,2.9,0.3,3.6,0.7
			l-0.6,2.4c-0.6-0.3-1.6-0.6-3-0.6c-3.1,0-4.8,2.3-4.8,5.1c0,3.2,2.1,5.1,4.8,5.1c1.4,0,2.3-0.3,3.1-0.6L235.3,81.9z"/>
		<path class="st0" d="M238.7,61h3.2v8.9h0.1c0.5-0.7,1.1-1.3,1.9-1.8c0.7-0.4,1.7-0.7,2.6-0.7c2.2,0,5.1,1.4,5.1,6.3v8.7h-3.2v-8.3
			c0-2.2-0.8-4-3.1-4c-1.6,0-2.8,1.1-3.2,2.4c-0.1,0.3-0.2,0.7-0.2,1.2v8.8h-3.2V61z"/>
	</g>
	<g>
		<path class="st1" d="M131.7,58c-4.3-9.8-8.7-19.6-13-29.3c0.1-0.1,0.1-0.1,0.2-0.2c9.5,4.4,18.9,8.8,28.4,13.2
			c0,0.1-0.1,0.2-0.1,0.3c-1.2,0.1-2.4,0.1-3.6,0.3c-1,0.2-2.1,0.4-3,1c-0.9,0.5-0.9,0.9-0.2,1.7c1.6,1.7,3.1,3.3,4.7,4.9
			c0.4,0.4,0.5,0.7,0,1.2c-1.5,1.4-2.9,2.9-4.2,4.4c-0.4,0.5-0.7,0.4-1.1,0c-1.5-1.7-3-3.3-4.7-4.8c-1.1-1-1.5-0.8-1.9,0.6
			C132.4,53.5,132.1,55.7,131.7,58z"/>
	</g>
	<g>
		<path class="st0" d="M118.2,27.3c2.7-1,5.1-1.9,7.6-2.8c5.2-1.9,10.3-3.8,15.5-5.7c0.3-0.1,0.6-0.4,0.8-0.1
			c0.2,0.3-0.2,0.5-0.4,0.7c-1.2,1.5-2.2,3.1-2.9,5.2c1.9-1,3.6-1,4.9,0.8c0.8,1.2,0.7,3.2-0.3,4.4c-1.2,1.6-2.8,1.3-4.6,0.7
			c0.6,2.5,2.4,4.1,3.8,6C134.6,33.4,126.6,30.4,118.2,27.3z"/>
	</g>
	<g>
		<path class="st0" d="M116.4,27.7c-8.1,3.2-16,6.3-24.2,9.5c1.5-2.2,3-4,4.1-6.3c-0.8,0.1-1.5,0.3-2.2,0.3
			c-1.9,0.1-3.2-0.9-3.6-2.9c-0.4-1.7,0.3-3,1.8-3.7c0.8-0.3,1.6-0.3,2.3,0c0.5,0.2,1,0.4,1.5,0.6c-0.1-1.3-1.3-3.5-3.3-6.2
			C100.6,21.9,108.3,24.8,116.4,27.7z"/>
	</g>
	<g>
		<path class="st0" d="M128.1,3.5c0.8,2.5,1.2,4.8,2.3,7c0.6-1.9,1.4-3.4,3.6-3.1c1.8,0.2,3.1,1.4,3.4,3.1c0.3,2.2-1.2,3.1-2.9,4
			c0.4,0.4,1,0.5,1.4,0.6c1.6,0.3,3.2,0.5,4.8,0.4c0.3,0,0.7-0.3,0.7,0.2c0.1,0.4-0.4,0.4-0.6,0.5c-2,0.9-4,1.8-6,2.8
			c-5.1,2.4-10.3,4.7-15.4,7.1c-0.3,0.1-0.6,0.4-1.1,0.3C121.6,18.8,124.8,11.3,128.1,3.5z"/>
	</g>
	<g>
		<path class="st0" d="M116.7,28.4c-3.6,8-7.1,15.8-10.6,23.6c0-2.4-0.1-4.7-1.3-7c-0.4,0.6-0.6,1.1-0.9,1.6c-0.8,1.2-2,1.6-3.3,1.3
			c-1.5-0.4-2.6-1.6-2.9-3.2c-0.2-1.2,0.3-2.2,1.6-3c0.1-0.1,0.2-0.1,0.3-0.2c0.3-0.2,0.9-0.1,0.9-0.6c0-0.4-0.5-0.6-0.9-0.8
			c-1.2-0.5-2.4-0.8-3.7-0.9c-0.8-0.1-1.6-0.1-2.5-0.3C101.1,35.4,108.7,32,116.7,28.4z"/>
	</g>
	<g>
		<path class="st0" d="M104,11c1.3-1.5,1.7-3.2,2-7.3c3.5,7.7,6.9,15.2,10.3,22.7c-0.1,0.1-0.1,0.1-0.2,0.2
			c-7.5-3.3-14.9-6.5-22.7-9.9c2.5-0.6,4.7-1.1,6.9-2.1c-1-0.3-2-0.6-2.5-1.4c-0.6-0.8-0.6-1.8-0.5-2.7c0.3-1.6,1.8-2.8,3.6-2.9
			C102.4,7.6,103.2,8.4,104,11z"/>
	</g>
	<g>
		<path class="st0" d="M108.5,2.9c1.3,1.1,2.6,2.2,4.1,3c0.4,0.2,0.9,0.4,1.3,0.5c0.2,0.1,0.5,0.1,0.7,0c0.2-0.2,0-0.4-0.1-0.6
			c-1.2-3,0.1-4.7,3.3-4.5c1.7,0.1,2.6,1,2.6,2.8c0,0.2-0.1,0.5-0.1,0.7c0,0.5-0.5,1.2-0.1,1.5c0.5,0.3,1.1-0.2,1.7-0.5
			c1.3-0.7,2.5-1.6,3.7-2.4c0.2-0.1,0.4-0.4,0.9-0.3c-3.1,7.8-6.1,15.5-9.2,23.4c-1-2.6-1.9-5-2.8-7.3c-1.9-5-3.8-10-5.7-15
			C108.6,3.5,108.3,3.2,108.5,2.9L108.5,2.9z"/>
	</g>
	<g>
		<path class="st0" d="M126,52c-1.5-1.4-3.2-2.5-5.3-3.1c0.7,2,0.9,3.8-1.1,5c-1.2,0.7-3.2,0.5-4.2-0.3c-1.1-0.9-1.2-2-0.4-4.7
			c-0.8-0.2-1.5,0.2-2.1,0.6c-1.1,0.7-2.1,1.5-3,2.4c-0.2,0.2-0.4,0.5-0.7,0.3c-0.3-0.2,0.1-0.5,0.2-0.7c2.6-7.2,5.3-14.4,7.9-21.6
			c0.1-0.3,0.2-0.6,0.4-1.1c2.9,7.8,5.8,15.4,8.7,23C126.1,51.9,126.1,51.9,126,52z"/>
	</g>
	<g>
		<path class="st0" d="M108.6,2.8c0,0-0.1,0-0.1,0.1c0,0,0,0,0,0C108.5,2.9,108.5,2.9,108.6,2.8C108.5,2.9,108.6,2.8,108.6,2.8z"/>
	</g>
</g>
</svg>
